<?xml version="1.0" encoding="UTF-8" standalone="no"?>
<svg
   viewBox="0 0 350.00002 210.00001"
   fill="none"
   class="h-5 text-black dark:text-white"
   version="1.1"
   id="svg2"
   sodipodi:docname="tailwind.svg"
   width="350"
   height="210"
   inkscape:version="1.3.2 (091e20e, 2023-11-25)"
   xmlns:inkscape="http://www.inkscape.org/namespaces/inkscape"
   xmlns:sodipodi="http://sodipodi.sourceforge.net/DTD/sodipodi-0.dtd"
   xmlns="http://www.w3.org/2000/svg"
   xmlns:svg="http://www.w3.org/2000/svg">
  <defs
     id="defs2" />
  <sodipodi:namedview
     id="namedview2"
     pagecolor="#ffffff"
     bordercolor="#666666"
     borderopacity="1.0"
     inkscape:showpageshadow="2"
     inkscape:pageopacity="0.0"
     inkscape:pagecheckerboard="true"
     inkscape:deskcolor="#d1d1d1"
     labelstyle="default"
     inkscape:zoom="1"
     inkscape:cx="17"
     inkscape:cy="7"
     inkscape:window-width="1920"
     inkscape:window-height="983"
     inkscape:window-x="0"
     inkscape:window-y="25"
     inkscape:window-maximized="0"
     inkscape:current-layer="svg2" />
  <path
     fill="#00bcff"
     d="m 175.00989,5 c -45.34454,0 -73.67128,22.2233 -85.01979,66.669901 17.00792,-22.2136 36.83565,-30.555825 59.50297,-24.997575 12.93156,3.162285 22.18252,12.358134 32.4031,22.543409 C 198.56769,85.803182 217.86113,105 260,105 305.33465,105 333.66139,82.776701 345,38.3398 328.00198,60.553401 308.16436,68.895626 285.50693,63.327675 272.56548,60.16539 263.31452,50.969541 253.09394,40.784266 236.42242,24.206519 217.12897,5 175.00989,5 Z M 89.9901,105 C 44.67524,105 16.32871,127.2233 5,171.6699 21.99802,149.4466 41.83564,141.11407 64.49307,146.67233 77.43452,149.83462 86.68548,159.03046 96.90606,169.21574 113.57758,185.80319 132.87103,205 175.00989,205 220.34455,205 248.67128,182.7864 260,138.3398 243.00198,160.5534 223.17425,168.89562 200.50693,163.33738 187.57537,160.16539 178.32441,150.95984 168.09394,140.78426 151.43231,124.19682 132.13887,105 90,105 Z"
     id="path1"
     style="stroke-width:9.79669" />
</svg>
